<mxfile host="app.diagrams.net" modified="2024-02-27T08:44:41.431Z" agent="Mozilla/5.0 (Windows NT 10.0; Win64; x64) AppleWebKit/537.36 (KHTML, like Gecko) Chrome/120.0.0.0 Safari/537.36" version="23.1.6" etag="NJrWpkR-QN4e2uqVDxWl" type="github">
  <diagram name="第 1 页" id="JrJ457NU4jjKF4ZleG-i">
    <mxGraphModel>
      <root>
        <mxCell id="0" />
        <mxCell id="1" parent="0" />
      </root>
    </mxGraphModel>
  </diagram>
</mxfile>
